<?xml version="1.0" encoding="iso-8859-1"?>
<!-- Generator: Adobe Illustrator 16.0.0, SVG Export Plug-In . SVG Version: 6.00 Build 0)  -->
<!DOCTYPE svg PUBLIC "-//W3C//DTD SVG 1.1//EN" "http://www.w3.org/Graphics/SVG/1.1/DTD/svg11.dtd">
<svg version="1.1" id="Layer_2" xmlns="http://www.w3.org/2000/svg" xmlns:xlink="http://www.w3.org/1999/xlink" x="0px" y="0px"
	 width="512px" height="512px" viewBox="0 0 512 512" style="enable-background:new 0 0 512 512;" xml:space="preserve">
<g>
	<path d="M411.378,89.691c-26.324-4.534-53.444-0.845-79.764,1.751c-26.222,2.587-53.604,5.753-79.585-0.397
		c-30.592-7.241-49.945-27.294-64.216-54.464c-3.935,10.646-7.869,21.291-11.803,31.938
		c-25.74,69.646-51.479,139.292-77.218,208.938L29.298,465.5l26.838,9.919l62.541-169.226
		c11.607,12.382,25.937,21.374,44.333,25.728c25.979,6.147,53.363,2.986,79.584,0.398c26.318-2.6,53.441-6.287,79.765-1.752
		c33.827,5.827,55.682,26.086,71.324,55.871c29.676-80.291,59.347-160.583,89.02-240.876
		C467.059,115.777,445.209,95.519,411.378,89.691z M414.677,232.646c-13.235-11.169-27.442-18.638-44.571-21.931
		c-5.714,15.458-11.427,30.916-17.14,46.374c17.131,3.295,31.335,10.764,44.572,21.932c-5.239,14.176-10.478,28.352-15.717,42.526
		c-13.234-11.168-27.443-18.642-44.573-21.93c5.239-14.177,10.479-28.353,15.718-42.528c-17.443-2.813-34.473-2.797-52.072-1.72
		c-5.239,14.176-10.479,28.353-15.717,42.528c-18.21,1.471-36.358,3.56-54.567,5.029c5.238-14.178,10.478-28.353,15.716-42.527
		c-17.599,1.079-34.631,1.096-52.073-1.718c-5.239,14.175-10.478,28.351-15.717,42.526c-17.128-3.29-31.341-10.762-44.572-21.932
		c5.238-14.175,10.478-28.351,15.716-42.526c13.236,11.17,27.442,18.64,44.573,21.932c5.712-15.458,11.427-30.918,17.139-46.376
		c-17.13-3.285-31.338-10.766-44.573-21.93c5.714-15.46,11.427-30.92,17.14-46.378c13.236,11.173,27.442,18.635,44.572,21.933
		c5.239-14.176,10.478-28.351,15.717-42.525c17.442,2.813,34.475,2.797,52.074,1.717c-5.239,14.175-10.478,28.351-15.717,42.526
		c18.209-1.471,36.357-3.558,54.567-5.028c5.238-14.175,10.478-28.351,15.717-42.527c17.6-1.078,34.629-1.095,52.072,1.719
		c-5.239,14.176-10.478,28.351-15.717,42.528c17.131,3.294,31.335,10.761,44.573,21.93
		C426.104,201.728,420.393,217.188,414.677,232.646z"/>
	<path d="M263.465,214.023c-5.713,15.459-11.426,30.917-17.14,46.376c18.21-1.471,36.359-3.559,54.568-5.03
		c5.713-15.457,11.426-30.916,17.139-46.374C299.822,210.467,281.674,212.554,263.465,214.023z"/>
	<path d="M263.465,214.023c5.713-15.458,11.426-30.918,17.139-46.375c-17.603,1.075-34.629,1.093-52.074-1.718
		c-5.713,15.458-11.426,30.917-17.139,46.375C228.834,215.121,245.864,215.104,263.465,214.023z"/>
	<path d="M335.171,162.62c-5.713,15.458-11.426,30.916-17.139,46.375c17.601-1.075,34.629-1.093,52.073,1.72
		c5.712-15.458,11.426-30.917,17.138-46.375C369.801,161.526,352.771,161.54,335.171,162.62z"/>
</g>
</svg>
